# 3ds Max Wavefront OBJ Exporter v0.99 - (c)2007 guruware
# File Created: 31.07.2020 20:14:56

mtllib Tower.mtl

#
# object Cylinder001
#

v  0.0000 0.0000 0.0248
v  1.3214 0.4809 0.0248
v  1.4062 0.0000 0.0248
v  1.0772 0.9039 0.0248
v  0.7031 1.2178 0.0248
v  0.2442 1.3848 0.0248
v  -0.2442 1.3848 0.0248
v  -0.7031 1.2178 0.0248
v  -1.0772 0.9039 0.0248
v  -1.3214 0.4809 0.0248
v  -1.4062 0.0000 0.0248
v  -1.3214 -0.4809 0.0248
v  -1.0772 -0.9039 0.0248
v  -0.7031 -1.2178 0.0248
v  -0.2442 -1.3848 0.0248
v  0.2442 -1.3848 0.0248
v  0.7031 -1.2178 0.0248
v  1.0772 -0.9039 0.0248
v  1.3214 -0.4809 0.0248
v  1.4748 0.5368 0.2812
v  1.5694 0.0000 0.2812
v  1.2022 1.0088 0.2812
v  0.7847 1.3592 0.2812
v  0.2725 1.5456 0.2812
v  -0.2725 1.5456 0.2812
v  -0.7847 1.3592 0.2812
v  -1.2022 1.0088 0.2812
v  -1.4748 0.5368 0.2812
v  -1.5694 0.0000 0.2812
v  -1.4748 -0.5368 0.2812
v  -1.2022 -1.0088 0.2812
v  -0.7847 -1.3592 0.2812
v  -0.2725 -1.5456 0.2812
v  0.2725 -1.5456 0.2812
v  0.7847 -1.3592 0.2812
v  1.2022 -1.0088 0.2812
v  1.4748 -0.5368 0.2812
v  1.4748 0.5368 2.4983
v  1.5694 0.0000 2.4983
v  1.2022 1.0088 2.4983
v  0.7847 1.3592 2.4983
v  0.2725 1.5456 2.4983
v  -0.2725 1.5456 2.4983
v  -0.7847 1.3591 2.4983
v  -1.2022 1.0088 2.4983
v  -1.4748 0.5368 2.4983
v  -1.5694 0.0000 2.4983
v  -1.4748 -0.5368 2.4983
v  -1.2022 -1.0088 2.4983
v  -0.7847 -1.3592 2.4983
v  -0.2725 -1.5456 2.4983
v  0.2725 -1.5456 2.4983
v  0.7847 -1.3592 2.4983
v  1.2022 -1.0088 2.4983
v  1.4748 -0.5368 2.4983
v  1.3214 0.4809 2.9224
v  1.4062 0.0000 2.9224
v  1.0772 0.9039 2.9224
v  0.7031 1.2178 2.9224
v  0.2442 1.3848 2.9224
v  -0.2442 1.3848 2.9224
v  -0.7031 1.2178 2.9224
v  -1.0772 0.9039 2.9224
v  -1.3214 0.4809 2.9224
v  -1.4062 0.0000 2.9224
v  -1.3214 -0.4809 2.9224
v  -1.0772 -0.9039 2.9224
v  -0.7031 -1.2178 2.9224
v  -0.2442 -1.3848 2.9224
v  0.2442 -1.3848 2.9224
v  0.7031 -1.2178 2.9224
v  1.0772 -0.9039 2.9224
v  1.3214 -0.4809 2.9224
v  1.3214 0.4809 4.3849
v  1.4062 0.0000 4.3849
v  1.0772 0.9039 4.3849
v  0.7031 1.2178 4.3849
v  0.2442 1.3848 4.3849
v  -0.2442 1.3848 4.3849
v  -0.7031 1.2178 4.3849
v  -1.0772 0.9039 4.3849
v  -1.3214 0.4809 4.3849
v  -1.4062 0.0000 4.3849
v  -1.3214 -0.4809 4.3849
v  -1.0772 -0.9039 4.3849
v  -0.7031 -1.2178 4.3849
v  -0.2442 -1.3848 4.3849
v  0.2442 -1.3848 4.3849
v  0.7031 -1.2178 4.3849
v  1.0772 -0.9039 4.3849
v  1.3214 -0.4809 4.3849
v  1.4748 0.5368 4.8090
v  1.5694 0.0000 4.8090
v  1.2022 1.0088 4.8090
v  0.7847 1.3592 4.8090
v  0.2725 1.5456 4.8090
v  -0.2725 1.5456 4.8090
v  -0.7847 1.3592 4.8090
v  -1.2022 1.0088 4.8090
v  -1.4748 0.5368 4.8090
v  -1.5694 0.0000 4.8090
v  -1.4748 -0.5368 4.8090
v  -1.2022 -1.0088 4.8090
v  -0.7847 -1.3592 4.8090
v  -0.2725 -1.5456 4.8090
v  0.2725 -1.5456 4.8090
v  0.7847 -1.3592 4.8090
v  1.2022 -1.0088 4.8090
v  1.4748 -0.5368 4.8090
v  1.4748 0.5368 9.7670
v  1.5694 0.0000 9.7670
v  1.2022 1.0088 9.7670
v  0.7847 1.3592 9.7670
v  0.2725 1.5456 9.7670
v  -0.2725 1.5456 9.7670
v  -0.7847 1.3591 9.7670
v  -1.2022 1.0088 9.7670
v  -1.4748 0.5368 9.7670
v  -1.5694 0.0000 9.7670
v  -1.4748 -0.5368 9.7670
v  -1.2022 -1.0088 9.7670
v  -0.7847 -1.3592 9.7670
v  -0.2725 -1.5456 9.7670
v  0.2725 -1.5456 9.7670
v  0.7847 -1.3592 9.7670
v  1.2022 -1.0088 9.7670
v  1.4748 -0.5368 9.7670
v  1.3214 0.4809 10.0234
v  1.4062 0.0000 10.0234
v  1.0772 0.9039 10.0234
v  0.7031 1.2178 10.0234
v  0.2442 1.3848 10.0234
v  -0.2442 1.3848 10.0234
v  -0.7031 1.2178 10.0234
v  -1.0772 0.9039 10.0234
v  -1.3214 0.4809 10.0234
v  -1.4062 0.0000 10.0234
v  -1.3214 -0.4809 10.0234
v  -1.0772 -0.9039 10.0234
v  -0.7031 -1.2178 10.0234
v  -0.2442 -1.3848 10.0234
v  0.2442 -1.3848 10.0234
v  0.7031 -1.2178 10.0234
v  1.0772 -0.9039 10.0234
v  1.3214 -0.4809 10.0234
v  0.0000 0.0000 10.0234
# 146 vertices

vn 0.0000 0.0000 -1.0000
vn 0.8435 0.0000 -0.5371
vn 0.9043 0.3291 -0.2718
vn 0.9624 0.0000 -0.2718
vn 0.7926 0.2885 -0.5371
vn 0.7372 0.6186 -0.2718
vn 0.6462 0.5422 -0.5371
vn 0.4812 0.8334 -0.2718
vn 0.4217 0.7305 -0.5371
vn 0.1671 0.9477 -0.2718
vn 0.1465 0.8307 -0.5371
vn -0.1671 0.9477 -0.2718
vn -0.1465 0.8307 -0.5371
vn -0.4812 0.8334 -0.2718
vn -0.4217 0.7305 -0.5371
vn -0.7372 0.6186 -0.2718
vn -0.6462 0.5422 -0.5371
vn -0.9043 0.3291 -0.2718
vn -0.7926 0.2885 -0.5371
vn -0.9624 0.0000 -0.2718
vn -0.8435 0.0000 -0.5371
vn -0.9043 -0.3291 -0.2718
vn -0.7926 -0.2885 -0.5371
vn -0.7372 -0.6186 -0.2718
vn -0.6462 -0.5422 -0.5371
vn -0.4812 -0.8334 -0.2718
vn -0.4217 -0.7305 -0.5371
vn -0.1671 -0.9477 -0.2718
vn -0.1465 -0.8307 -0.5371
vn 0.1671 -0.9477 -0.2718
vn 0.1465 -0.8307 -0.5371
vn 0.4812 -0.8334 -0.2718
vn 0.4217 -0.7305 -0.5371
vn 0.7372 -0.6186 -0.2718
vn 0.6462 -0.5422 -0.5371
vn 0.9043 -0.3291 -0.2718
vn 0.7926 -0.2885 -0.5371
vn 0.9245 0.3365 0.1792
vn 0.9838 0.0000 0.1792
vn 0.7536 0.6324 0.1792
vn 0.4919 0.8520 0.1792
vn 0.1708 0.9689 0.1792
vn -0.1708 0.9689 0.1792
vn -0.4919 0.8520 0.1792
vn -0.7536 0.6324 0.1792
vn -0.9245 0.3365 0.1792
vn -0.9838 0.0000 0.1792
vn -0.9245 -0.3365 0.1792
vn -0.7536 -0.6324 0.1792
vn -0.4919 -0.8520 0.1792
vn -0.1708 -0.9689 0.1792
vn 0.1708 -0.9689 0.1792
vn 0.4919 -0.8520 0.1792
vn 0.7536 -0.6324 0.1792
vn 0.9245 -0.3365 0.1792
vn 0.9232 0.3360 0.1864
vn 0.9825 0.0000 0.1864
vn 0.7526 0.6315 0.1864
vn 0.4912 0.8508 0.1864
vn 0.1706 0.9675 0.1864
vn -0.1706 0.9675 0.1864
vn -0.4912 0.8508 0.1864
vn -0.7526 0.6315 0.1864
vn -0.9232 0.3360 0.1864
vn -0.9825 0.0000 0.1864
vn -0.9232 -0.3360 0.1864
vn -0.7526 -0.6315 0.1864
vn -0.4912 -0.8508 0.1864
vn -0.1706 -0.9675 0.1864
vn 0.1706 -0.9675 0.1864
vn 0.4912 -0.8508 0.1864
vn 0.7526 -0.6315 0.1864
vn 0.9232 -0.3360 0.1864
vn 0.9232 0.3360 -0.1864
vn 0.9825 0.0000 -0.1864
vn 0.7526 0.6315 -0.1864
vn 0.4912 0.8508 -0.1864
vn 0.1706 0.9675 -0.1864
vn -0.1706 0.9675 -0.1864
vn -0.4912 0.8508 -0.1864
vn -0.7526 0.6315 -0.1864
vn -0.9232 0.3360 -0.1864
vn -0.9825 0.0000 -0.1864
vn -0.9232 -0.3360 -0.1864
vn -0.7526 -0.6315 -0.1864
vn -0.4912 -0.8508 -0.1864
vn -0.1706 -0.9675 -0.1864
vn 0.1706 -0.9675 -0.1864
vn 0.4912 -0.8508 -0.1864
vn 0.7526 -0.6315 -0.1864
vn 0.9232 -0.3360 -0.1864
vn 0.9245 0.3365 -0.1792
vn 0.9838 0.0000 -0.1792
vn 0.7536 0.6324 -0.1792
vn 0.4919 0.8520 -0.1792
vn 0.1708 0.9689 -0.1792
vn -0.1708 0.9689 -0.1792
vn -0.4919 0.8520 -0.1792
vn -0.7536 0.6324 -0.1792
vn -0.9245 0.3365 -0.1792
vn -0.9838 0.0000 -0.1792
vn -0.9245 -0.3365 -0.1792
vn -0.7536 -0.6324 -0.1792
vn -0.4919 -0.8520 -0.1792
vn -0.1708 -0.9689 -0.1792
vn 0.1708 -0.9689 -0.1792
vn 0.4919 -0.8520 -0.1792
vn 0.7536 -0.6324 -0.1792
vn 0.9245 -0.3365 -0.1792
vn 0.9043 0.3291 0.2718
vn 0.9624 0.0000 0.2718
vn 0.7372 0.6186 0.2718
vn 0.4812 0.8334 0.2718
vn 0.1671 0.9477 0.2718
vn -0.1671 0.9477 0.2718
vn -0.4812 0.8334 0.2718
vn -0.7372 0.6186 0.2718
vn -0.9043 0.3291 0.2718
vn -0.9624 0.0000 0.2718
vn -0.9043 -0.3291 0.2718
vn -0.7372 -0.6186 0.2718
vn -0.4812 -0.8334 0.2718
vn -0.1671 -0.9477 0.2718
vn 0.1671 -0.9477 0.2718
vn 0.4812 -0.8334 0.2718
vn 0.7372 -0.6186 0.2718
vn 0.9043 -0.3291 0.2718
vn 0.7926 0.2885 0.5371
vn 0.8435 0.0000 0.5371
vn 0.6462 0.5422 0.5371
vn 0.4217 0.7305 0.5371
vn 0.1465 0.8307 0.5371
vn -0.1465 0.8307 0.5371
vn -0.4217 0.7305 0.5371
vn -0.6462 0.5422 0.5371
vn -0.7926 0.2885 0.5371
vn -0.8435 0.0000 0.5371
vn -0.7926 -0.2885 0.5371
vn -0.6462 -0.5422 0.5371
vn -0.4217 -0.7305 0.5371
vn -0.1465 -0.8307 0.5371
vn 0.1465 -0.8307 0.5371
vn 0.4217 -0.7305 0.5371
vn 0.6462 -0.5422 0.5371
vn 0.7926 -0.2885 0.5371
vn 0.0000 0.0000 1.0000
# 146 vertex normals

vt -1.0927 0.5000 0.5000
vt -1.0927 0.6556 0.3678
vt -1.0927 0.5000 0.3594
vt -1.0927 0.7924 0.3923
vt -1.0927 0.8940 0.4297
vt -1.0927 0.9480 0.4756
vt -1.0927 0.9480 0.5244
vt -1.0927 0.8940 0.5703
vt -1.0927 0.7924 0.6077
vt -1.0927 0.6556 0.6322
vt -1.0927 0.5000 0.6406
vt -1.0927 0.3444 0.6322
vt -1.0927 0.2076 0.6077
vt -1.0927 0.1060 0.5703
vt -1.0927 0.0520 0.5244
vt -1.0927 0.0520 0.4756
vt -1.0927 0.1060 0.4297
vt -1.0927 0.2076 0.3923
vt -1.0927 0.3444 0.3678
vt -1.0111 0.6736 0.3525
vt -1.0111 0.5000 0.3430
vt -1.0111 0.8264 0.3798
vt -1.0111 0.9397 0.4215
vt -1.0111 1.0000 0.4727
vt -1.0111 1.0000 0.5273
vt -1.0111 0.9397 0.5785
vt -1.0111 0.8264 0.6202
vt -1.0111 0.6736 0.6475
vt -1.0111 0.5000 0.6570
vt -1.0111 0.3264 0.6475
vt -1.0111 0.1736 0.6202
vt -1.0111 0.0603 0.5785
vt -1.0111 0.0000 0.5273
vt -1.0111 0.0000 0.4727
vt -1.0111 0.0603 0.4215
vt -1.0111 0.1736 0.3798
vt -1.0111 0.3264 0.3525
vt -0.3047 0.6736 0.3525
vt -0.3047 0.5000 0.3430
vt -0.3047 0.8264 0.3798
vt -0.3047 0.9397 0.4215
vt -0.3047 1.0000 0.4727
vt -0.3047 1.0000 0.5273
vt -0.3047 0.9397 0.5785
vt -0.3047 0.8264 0.6202
vt -0.3047 0.6736 0.6475
vt -0.3047 0.5000 0.6570
vt -0.3047 0.3264 0.6475
vt -0.3047 0.1736 0.6202
vt -0.3047 0.0603 0.5785
vt -0.3047 0.0000 0.5273
vt -0.3047 0.0000 0.4727
vt -0.3047 0.0603 0.4215
vt -0.3047 0.1736 0.3798
vt -0.3047 0.3264 0.3525
vt -0.1696 0.6556 0.3678
vt -0.1696 0.5000 0.3594
vt -0.1696 0.7924 0.3923
vt -0.1696 0.8940 0.4297
vt -0.1696 0.9480 0.4756
vt -0.1696 0.9480 0.5244
vt -0.1696 0.8940 0.5703
vt -0.1696 0.7924 0.6077
vt -0.1696 0.6556 0.6322
vt -0.1696 0.5000 0.6406
vt -0.1696 0.3444 0.6322
vt -0.1696 0.2076 0.6077
vt -0.1696 0.1060 0.5703
vt -0.1696 0.0520 0.5244
vt -0.1696 0.0520 0.4756
vt -0.1696 0.1060 0.4297
vt -0.1696 0.2076 0.3923
vt -0.1696 0.3444 0.3678
vt 0.2963 0.6556 0.3678
vt 0.2963 0.5000 0.3594
vt 0.2963 0.7924 0.3923
vt 0.2963 0.8940 0.4297
vt 0.2963 0.9480 0.4756
vt 0.2963 0.9480 0.5244
vt 0.2963 0.8940 0.5703
vt 0.2963 0.7924 0.6077
vt 0.2963 0.6556 0.6322
vt 0.2963 0.5000 0.6406
vt 0.2963 0.3444 0.6322
vt 0.2963 0.2076 0.6077
vt 0.2963 0.1060 0.5703
vt 0.2963 0.0520 0.5244
vt 0.2963 0.0520 0.4756
vt 0.2963 0.1060 0.4297
vt 0.2963 0.2076 0.3923
vt 0.2963 0.3444 0.3678
vt 0.4315 0.6736 0.3525
vt 0.4315 0.5000 0.3430
vt 0.4315 0.8264 0.3798
vt 0.4315 0.9397 0.4215
vt 0.4315 1.0000 0.4727
vt 0.4315 1.0000 0.5273
vt 0.4315 0.9397 0.5785
vt 0.4315 0.8264 0.6202
vt 0.4315 0.6736 0.6475
vt 0.4315 0.5000 0.6570
vt 0.4315 0.3264 0.6475
vt 0.4315 0.1736 0.6202
vt 0.4315 0.0603 0.5785
vt 0.4315 0.0000 0.5273
vt 0.4315 0.0000 0.4727
vt 0.4315 0.0603 0.4215
vt 0.4315 0.1736 0.3798
vt 0.4315 0.3264 0.3525
vt 2.0111 0.6736 0.3525
vt 2.0111 0.5000 0.3430
vt 2.0111 0.8264 0.3798
vt 2.0111 0.9397 0.4215
vt 2.0111 1.0000 0.4727
vt 2.0111 1.0000 0.5273
vt 2.0111 0.9397 0.5785
vt 2.0111 0.8264 0.6202
vt 2.0111 0.6736 0.6475
vt 2.0111 0.5000 0.6570
vt 2.0111 0.3264 0.6475
vt 2.0111 0.1736 0.6202
vt 2.0111 0.0603 0.5785
vt 2.0111 0.0000 0.5273
vt 2.0111 0.0000 0.4727
vt 2.0111 0.0603 0.4215
vt 2.0111 0.1736 0.3798
vt 2.0111 0.3264 0.3525
vt 2.0927 0.6556 0.3678
vt 2.0927 0.5000 0.3594
vt 2.0927 0.7924 0.3923
vt 2.0927 0.8940 0.4297
vt 2.0927 0.9480 0.4756
vt 2.0927 0.9480 0.5244
vt 2.0927 0.8940 0.5703
vt 2.0927 0.7924 0.6077
vt 2.0927 0.6556 0.6322
vt 2.0927 0.5000 0.6406
vt 2.0927 0.3444 0.6322
vt 2.0927 0.2076 0.6077
vt 2.0927 0.1060 0.5703
vt 2.0927 0.0520 0.5244
vt 2.0927 0.0520 0.4756
vt 2.0927 0.1060 0.4297
vt 2.0927 0.2076 0.3923
vt 2.0927 0.3444 0.3678
vt 2.0927 0.5000 0.5000
# 146 texture coords

o Cylinder001
g Cylinder001
usemtl Material__25
f 1/1/1 2/2/1 3/3/1 
f 1/1/1 4/4/1 2/2/1 
f 1/1/1 5/5/1 4/4/1 
f 1/1/1 6/6/1 5/5/1 
f 1/1/1 7/7/1 6/6/1 
f 1/1/1 8/8/1 7/7/1 
f 1/1/1 9/9/1 8/8/1 
f 1/1/1 10/10/1 9/9/1 
f 1/1/1 11/11/1 10/10/1 
f 1/1/1 12/12/1 11/11/1 
f 1/1/1 13/13/1 12/12/1 
f 1/1/1 14/14/1 13/13/1 
f 1/1/1 15/15/1 14/14/1 
f 1/1/1 16/16/1 15/15/1 
f 1/1/1 17/17/1 16/16/1 
f 1/1/1 18/18/1 17/17/1 
f 1/1/1 19/19/1 18/18/1 
f 1/1/1 3/3/1 19/19/1 
f 3/3/2 20/20/3 21/21/4 
f 3/3/2 2/2/5 20/20/3 
f 2/2/5 22/22/6 20/20/3 
f 2/2/5 4/4/7 22/22/6 
f 4/4/7 23/23/8 22/22/6 
f 4/4/7 5/5/9 23/23/8 
f 5/5/9 24/24/10 23/23/8 
f 5/5/9 6/6/11 24/24/10 
f 6/6/11 25/25/12 24/24/10 
f 6/6/11 7/7/13 25/25/12 
f 7/7/13 26/26/14 25/25/12 
f 7/7/13 8/8/15 26/26/14 
f 8/8/15 27/27/16 26/26/14 
f 8/8/15 9/9/17 27/27/16 
f 9/9/17 28/28/18 27/27/16 
f 9/9/17 10/10/19 28/28/18 
f 10/10/19 29/29/20 28/28/18 
f 10/10/19 11/11/21 29/29/20 
f 11/11/21 30/30/22 29/29/20 
f 11/11/21 12/12/23 30/30/22 
f 12/12/23 31/31/24 30/30/22 
f 12/12/23 13/13/25 31/31/24 
f 13/13/25 32/32/26 31/31/24 
f 13/13/25 14/14/27 32/32/26 
f 14/14/27 33/33/28 32/32/26 
f 14/14/27 15/15/29 33/33/28 
f 15/15/29 34/34/30 33/33/28 
f 15/15/29 16/16/31 34/34/30 
f 16/16/31 35/35/32 34/34/30 
f 16/16/31 17/17/33 35/35/32 
f 17/17/33 36/36/34 35/35/32 
f 17/17/33 18/18/35 36/36/34 
f 18/18/35 37/37/36 36/36/34 
f 18/18/35 19/19/37 37/37/36 
f 19/19/37 21/21/4 37/37/36 
f 19/19/37 3/3/2 21/21/4 
f 21/21/4 38/38/38 39/39/39 
f 21/21/4 20/20/3 38/38/38 
f 20/20/3 40/40/40 38/38/38 
f 20/20/3 22/22/6 40/40/40 
f 22/22/6 41/41/41 40/40/40 
f 22/22/6 23/23/8 41/41/41 
f 23/23/8 42/42/42 41/41/41 
f 23/23/8 24/24/10 42/42/42 
f 24/24/10 43/43/43 42/42/42 
f 24/24/10 25/25/12 43/43/43 
f 25/25/12 44/44/44 43/43/43 
f 25/25/12 26/26/14 44/44/44 
f 26/26/14 45/45/45 44/44/44 
f 26/26/14 27/27/16 45/45/45 
f 27/27/16 46/46/46 45/45/45 
f 27/27/16 28/28/18 46/46/46 
f 28/28/18 47/47/47 46/46/46 
f 28/28/18 29/29/20 47/47/47 
f 29/29/20 48/48/48 47/47/47 
f 29/29/20 30/30/22 48/48/48 
f 30/30/22 49/49/49 48/48/48 
f 30/30/22 31/31/24 49/49/49 
f 31/31/24 50/50/50 49/49/49 
f 31/31/24 32/32/26 50/50/50 
f 32/32/26 51/51/51 50/50/50 
f 32/32/26 33/33/28 51/51/51 
f 33/33/28 52/52/52 51/51/51 
f 33/33/28 34/34/30 52/52/52 
f 34/34/30 53/53/53 52/52/52 
f 34/34/30 35/35/32 53/53/53 
f 35/35/32 54/54/54 53/53/53 
f 35/35/32 36/36/34 54/54/54 
f 36/36/34 55/55/55 54/54/54 
f 36/36/34 37/37/36 55/55/55 
f 37/37/36 39/39/39 55/55/55 
f 37/37/36 21/21/4 39/39/39 
f 39/39/39 56/56/56 57/57/57 
f 39/39/39 38/38/38 56/56/56 
f 38/38/38 58/58/58 56/56/56 
f 38/38/38 40/40/40 58/58/58 
f 40/40/40 59/59/59 58/58/58 
f 40/40/40 41/41/41 59/59/59 
f 41/41/41 60/60/60 59/59/59 
f 41/41/41 42/42/42 60/60/60 
f 42/42/42 61/61/61 60/60/60 
f 42/42/42 43/43/43 61/61/61 
f 43/43/43 62/62/62 61/61/61 
f 43/43/43 44/44/44 62/62/62 
f 44/44/44 63/63/63 62/62/62 
f 44/44/44 45/45/45 63/63/63 
f 45/45/45 64/64/64 63/63/63 
f 45/45/45 46/46/46 64/64/64 
f 46/46/46 65/65/65 64/64/64 
f 46/46/46 47/47/47 65/65/65 
f 47/47/47 66/66/66 65/65/65 
f 47/47/47 48/48/48 66/66/66 
f 48/48/48 67/67/67 66/66/66 
f 48/48/48 49/49/49 67/67/67 
f 49/49/49 68/68/68 67/67/67 
f 49/49/49 50/50/50 68/68/68 
f 50/50/50 69/69/69 68/68/68 
f 50/50/50 51/51/51 69/69/69 
f 51/51/51 70/70/70 69/69/69 
f 51/51/51 52/52/52 70/70/70 
f 52/52/52 71/71/71 70/70/70 
f 52/52/52 53/53/53 71/71/71 
f 53/53/53 72/72/72 71/71/71 
f 53/53/53 54/54/54 72/72/72 
f 54/54/54 73/73/73 72/72/72 
f 54/54/54 55/55/55 73/73/73 
f 55/55/55 57/57/57 73/73/73 
f 55/55/55 39/39/39 57/57/57 
f 57/57/57 74/74/74 75/75/75 
f 57/57/57 56/56/56 74/74/74 
f 56/56/56 76/76/76 74/74/74 
f 56/56/56 58/58/58 76/76/76 
f 58/58/58 77/77/77 76/76/76 
f 58/58/58 59/59/59 77/77/77 
f 59/59/59 78/78/78 77/77/77 
f 59/59/59 60/60/60 78/78/78 
f 60/60/60 79/79/79 78/78/78 
f 60/60/60 61/61/61 79/79/79 
f 61/61/61 80/80/80 79/79/79 
f 61/61/61 62/62/62 80/80/80 
f 62/62/62 81/81/81 80/80/80 
f 62/62/62 63/63/63 81/81/81 
f 63/63/63 82/82/82 81/81/81 
f 63/63/63 64/64/64 82/82/82 
f 64/64/64 83/83/83 82/82/82 
f 64/64/64 65/65/65 83/83/83 
f 65/65/65 84/84/84 83/83/83 
f 65/65/65 66/66/66 84/84/84 
f 66/66/66 85/85/85 84/84/84 
f 66/66/66 67/67/67 85/85/85 
f 67/67/67 86/86/86 85/85/85 
f 67/67/67 68/68/68 86/86/86 
f 68/68/68 87/87/87 86/86/86 
f 68/68/68 69/69/69 87/87/87 
f 69/69/69 88/88/88 87/87/87 
f 69/69/69 70/70/70 88/88/88 
f 70/70/70 89/89/89 88/88/88 
f 70/70/70 71/71/71 89/89/89 
f 71/71/71 90/90/90 89/89/89 
f 71/71/71 72/72/72 90/90/90 
f 72/72/72 91/91/91 90/90/90 
f 72/72/72 73/73/73 91/91/91 
f 73/73/73 75/75/75 91/91/91 
f 73/73/73 57/57/57 75/75/75 
f 75/75/75 92/92/92 93/93/93 
f 75/75/75 74/74/74 92/92/92 
f 74/74/74 94/94/94 92/92/92 
f 74/74/74 76/76/76 94/94/94 
f 76/76/76 95/95/95 94/94/94 
f 76/76/76 77/77/77 95/95/95 
f 77/77/77 96/96/96 95/95/95 
f 77/77/77 78/78/78 96/96/96 
f 78/78/78 97/97/97 96/96/96 
f 78/78/78 79/79/79 97/97/97 
f 79/79/79 98/98/98 97/97/97 
f 79/79/79 80/80/80 98/98/98 
f 80/80/80 99/99/99 98/98/98 
f 80/80/80 81/81/81 99/99/99 
f 81/81/81 100/100/100 99/99/99 
f 81/81/81 82/82/82 100/100/100 
f 82/82/82 101/101/101 100/100/100 
f 82/82/82 83/83/83 101/101/101 
f 83/83/83 102/102/102 101/101/101 
f 83/83/83 84/84/84 102/102/102 
f 84/84/84 103/103/103 102/102/102 
f 84/84/84 85/85/85 103/103/103 
f 85/85/85 104/104/104 103/103/103 
f 85/85/85 86/86/86 104/104/104 
f 86/86/86 105/105/105 104/104/104 
f 86/86/86 87/87/87 105/105/105 
f 87/87/87 106/106/106 105/105/105 
f 87/87/87 88/88/88 106/106/106 
f 88/88/88 107/107/107 106/106/106 
f 88/88/88 89/89/89 107/107/107 
f 89/89/89 108/108/108 107/107/107 
f 89/89/89 90/90/90 108/108/108 
f 90/90/90 109/109/109 108/108/108 
f 90/90/90 91/91/91 109/109/109 
f 91/91/91 93/93/93 109/109/109 
f 91/91/91 75/75/75 93/93/93 
f 93/93/93 110/110/110 111/111/111 
f 93/93/93 92/92/92 110/110/110 
f 92/92/92 112/112/112 110/110/110 
f 92/92/92 94/94/94 112/112/112 
f 94/94/94 113/113/113 112/112/112 
f 94/94/94 95/95/95 113/113/113 
f 95/95/95 114/114/114 113/113/113 
f 95/95/95 96/96/96 114/114/114 
f 96/96/96 115/115/115 114/114/114 
f 96/96/96 97/97/97 115/115/115 
f 97/97/97 116/116/116 115/115/115 
f 97/97/97 98/98/98 116/116/116 
f 98/98/98 117/117/117 116/116/116 
f 98/98/98 99/99/99 117/117/117 
f 99/99/99 118/118/118 117/117/117 
f 99/99/99 100/100/100 118/118/118 
f 100/100/100 119/119/119 118/118/118 
f 100/100/100 101/101/101 119/119/119 
f 101/101/101 120/120/120 119/119/119 
f 101/101/101 102/102/102 120/120/120 
f 102/102/102 121/121/121 120/120/120 
f 102/102/102 103/103/103 121/121/121 
f 103/103/103 122/122/122 121/121/121 
f 103/103/103 104/104/104 122/122/122 
f 104/104/104 123/123/123 122/122/122 
f 104/104/104 105/105/105 123/123/123 
f 105/105/105 124/124/124 123/123/123 
f 105/105/105 106/106/106 124/124/124 
f 106/106/106 125/125/125 124/124/124 
f 106/106/106 107/107/107 125/125/125 
f 107/107/107 126/126/126 125/125/125 
f 107/107/107 108/108/108 126/126/126 
f 108/108/108 127/127/127 126/126/126 
f 108/108/108 109/109/109 127/127/127 
f 109/109/109 111/111/111 127/127/127 
f 109/109/109 93/93/93 111/111/111 
f 111/111/111 128/128/128 129/129/129 
f 111/111/111 110/110/110 128/128/128 
f 110/110/110 130/130/130 128/128/128 
f 110/110/110 112/112/112 130/130/130 
f 112/112/112 131/131/131 130/130/130 
f 112/112/112 113/113/113 131/131/131 
f 113/113/113 132/132/132 131/131/131 
f 113/113/113 114/114/114 132/132/132 
f 114/114/114 133/133/133 132/132/132 
f 114/114/114 115/115/115 133/133/133 
f 115/115/115 134/134/134 133/133/133 
f 115/115/115 116/116/116 134/134/134 
f 116/116/116 135/135/135 134/134/134 
f 116/116/116 117/117/117 135/135/135 
f 117/117/117 136/136/136 135/135/135 
f 117/117/117 118/118/118 136/136/136 
f 118/118/118 137/137/137 136/136/136 
f 118/118/118 119/119/119 137/137/137 
f 119/119/119 138/138/138 137/137/137 
f 119/119/119 120/120/120 138/138/138 
f 120/120/120 139/139/139 138/138/138 
f 120/120/120 121/121/121 139/139/139 
f 121/121/121 140/140/140 139/139/139 
f 121/121/121 122/122/122 140/140/140 
f 122/122/122 141/141/141 140/140/140 
f 122/122/122 123/123/123 141/141/141 
f 123/123/123 142/142/142 141/141/141 
f 123/123/123 124/124/124 142/142/142 
f 124/124/124 143/143/143 142/142/142 
f 124/124/124 125/125/125 143/143/143 
f 125/125/125 144/144/144 143/143/143 
f 125/125/125 126/126/126 144/144/144 
f 126/126/126 145/145/145 144/144/144 
f 126/126/126 127/127/127 145/145/145 
f 127/127/127 129/129/129 145/145/145 
f 127/127/127 111/111/111 129/129/129 
f 146/146/146 129/129/146 128/128/146 
f 146/146/146 128/128/146 130/130/146 
f 146/146/146 130/130/146 131/131/146 
f 146/146/146 131/131/146 132/132/146 
f 146/146/146 132/132/146 133/133/146 
f 146/146/146 133/133/146 134/134/146 
f 146/146/146 134/134/146 135/135/146 
f 146/146/146 135/135/146 136/136/146 
f 146/146/146 136/136/146 137/137/146 
f 146/146/146 137/137/146 138/138/146 
f 146/146/146 138/138/146 139/139/146 
f 146/146/146 139/139/146 140/140/146 
f 146/146/146 140/140/146 141/141/146 
f 146/146/146 141/141/146 142/142/146 
f 146/146/146 142/142/146 143/143/146 
f 146/146/146 143/143/146 144/144/146 
f 146/146/146 144/144/146 145/145/146 
f 146/146/146 145/145/146 129/129/146 
# 288 faces

